<svg width="160" height="160" viewBox="0 0 160 160" fill="none" xmlns="http://www.w3.org/2000/svg">
<path d="M136.775 136.533C116.536 156.808 86.927 164.708 59.2191 157.225C31.7615 149.811 10.3373 128.413 2.97403 101.05L2.72339 100.119C-4.63987 72.7559 3.16945 43.5586 23.2252 23.4669C43.4638 3.19221 73.073 -4.70772 100.781 2.77456C128.238 10.1893 149.663 31.5869 157.026 58.9498L157.277 59.8812C164.64 87.2441 156.831 116.441 136.775 136.533Z" fill="url(#paint0_radial)"/>
<path d="M136.775 136.533C116.536 156.808 86.927 164.708 59.2191 157.225C31.7615 149.811 10.3373 128.413 2.97403 101.05L2.72339 100.119C-4.63987 72.7559 3.16945 43.5586 23.2252 23.4669C43.4638 3.19221 73.073 -4.70772 100.781 2.77456C128.238 10.1893 149.663 31.5869 157.026 58.9498L157.277 59.8812C164.64 87.2441 156.831 116.441 136.775 136.533Z" fill="#FEF8F1"/>
<path d="M56.394 108.078L75.8008 113.298V118.266H74.3395C73.7828 118.266 73.2812 118.652 73.2812 119.208V124.145C73.2928 124.417 73.4096 124.674 73.6069 124.862C73.8043 125.05 74.0669 125.154 74.3395 125.152H85.6605C85.9331 125.154 86.1957 125.05 86.3931 124.862C86.5904 124.674 86.7072 124.417 86.7188 124.145V119.208C86.7188 118.651 86.2167 118.266 85.6605 118.266H84.1992V113.288L103.435 108.078C106.637 107.217 108.723 104.304 108.723 100.993V50.1849C108.723 46.1398 105.674 43.0156 101.622 43.0156H58.3784C54.3261 43.0156 50.9414 46.1398 50.9414 50.1849V100.993C50.9473 102.608 51.4843 104.177 52.4696 105.457C53.4549 106.738 54.8339 107.658 56.394 108.078ZM84.7031 123.137H75.2969V120.281H84.7031V123.137ZM77.8164 118.266V113.811C78.5335 113.941 79.2604 114.009 79.9891 114.016C80.7253 114.01 81.4595 113.94 82.1836 113.807V118.266H77.8164ZM52.957 50.1849C52.957 47.2505 55.4378 45.0312 58.3784 45.0312H101.622C104.562 45.0312 106.707 47.2505 106.707 50.1849V100.993C106.707 103.394 105.208 105.507 102.885 106.131L82.2494 111.696C80.7459 112.102 79.1613 112.102 77.6577 111.696L56.9313 106.131C55.7976 105.828 54.7948 105.161 54.0768 104.233C53.3588 103.305 52.9654 102.166 52.957 100.993V50.1849Z" fill="#092A34"/>
<path d="M56.9883 89.0391H102.676V91.0547H56.9883V89.0391Z" fill="#E92923"/>
<path d="M56.9883 62.8359H102.676V64.8516H56.9883V62.8359Z" fill="#E92923"/>
<path d="M97.1574 70.7305H83.4482C83.181 70.7305 82.9246 70.8366 82.7356 71.0256C82.5466 71.2147 82.4404 71.471 82.4404 71.7383C82.4404 72.0056 82.5466 72.2619 82.7356 72.4509C82.9246 72.6399 83.181 72.7461 83.4482 72.7461H97.1574C97.4246 72.7461 97.681 72.6399 97.87 72.4509C98.059 72.2619 98.1652 72.0056 98.1652 71.7383C98.1652 71.471 98.059 71.2147 97.87 71.0256C97.681 70.8366 97.4246 70.7305 97.1574 70.7305Z" fill="#E92923"/>
<path d="M62.8427 72.7461H78.7192C78.9865 72.7461 79.2429 72.6399 79.4319 72.4509C79.6209 72.2619 79.727 72.0056 79.727 71.7383C79.727 71.471 79.6209 71.2147 79.4319 71.0256C79.2429 70.8366 78.9865 70.7305 78.7192 70.7305H62.8427C62.5754 70.7305 62.319 70.8366 62.13 71.0256C61.941 71.2147 61.8348 71.471 61.8348 71.7383C61.8348 72.0056 61.941 72.2619 62.13 72.4509C62.319 72.6399 62.5754 72.7461 62.8427 72.7461Z" fill="#E92923"/>
<path d="M97.1573 75.6016H74.7783C74.511 75.6016 74.2547 75.7077 74.0657 75.8967C73.8767 76.0857 73.7705 76.3421 73.7705 76.6094C73.7705 76.8767 73.8767 77.133 74.0657 77.322C74.2547 77.511 74.511 77.6172 74.7783 77.6172H97.1573C97.4246 77.6172 97.6809 77.511 97.8699 77.322C98.0589 77.133 98.1651 76.8767 98.1651 76.6094C98.1651 76.3421 98.0589 76.0857 97.8699 75.8967C97.6809 75.7077 97.4246 75.6016 97.1573 75.6016Z" fill="#E92923"/>
<path d="M62.8427 77.6172H70.0485C70.3158 77.6172 70.5721 77.511 70.7611 77.322C70.9501 77.133 71.0563 76.8767 71.0563 76.6094C71.0563 76.3421 70.9501 76.0857 70.7611 75.8967C70.5721 75.7077 70.3158 75.6016 70.0485 75.6016H62.8427C62.5754 75.6016 62.319 75.7077 62.13 75.8967C61.941 76.0857 61.8348 76.3421 61.8348 76.6094C61.8348 76.8767 61.941 77.133 62.13 77.322C62.319 77.511 62.5754 77.6172 62.8427 77.6172Z" fill="#E92923"/>
<path d="M97.1574 80.4727H82.6602C82.3929 80.4727 82.1365 80.5788 81.9475 80.7678C81.7585 80.9568 81.6523 81.2132 81.6523 81.4805C81.6523 81.7478 81.7585 82.0041 81.9475 82.1931C82.1365 82.3821 82.3929 82.4883 82.6602 82.4883H97.1574C97.4247 82.4883 97.681 82.3821 97.87 82.1931C98.059 82.0041 98.1652 81.7478 98.1652 81.4805C98.1652 81.2132 98.059 80.9568 97.87 80.7678C97.681 80.5788 97.4247 80.4727 97.1574 80.4727Z" fill="#E92923"/>
<path d="M62.8427 82.4883H77.9311C78.1984 82.4883 78.4547 82.3821 78.6437 82.1931C78.8328 82.0041 78.9389 81.7478 78.9389 81.4805C78.9389 81.2132 78.8328 80.9568 78.6437 80.7678C78.4547 80.5788 78.1984 80.4727 77.9311 80.4727H62.8427C62.5754 80.4727 62.319 80.5788 62.13 80.7678C61.941 80.9568 61.8348 81.2132 61.8348 81.4805C61.8348 81.7478 61.941 82.0041 62.13 82.1931C62.319 82.3821 62.5754 82.4883 62.8427 82.4883Z" fill="#E92923"/>
<path d="M60.0285 103.733L77.1623 108.339C79.02 108.837 80.9763 108.837 82.834 108.339L99.9715 103.733C101.082 103.434 102.064 102.778 102.765 101.866C103.467 100.953 103.848 99.8359 103.852 98.6853V53.196C103.852 50.3137 101.491 47.8867 98.6049 47.8867H61.3951C58.5086 47.8867 56.1484 50.3137 56.1484 53.196V64.5156C56.1484 64.7829 56.2546 65.0393 56.4436 65.2283C56.6326 65.4173 56.889 65.5234 57.1562 65.5234C57.4235 65.5234 57.6799 65.4173 57.8689 65.2283C58.0579 65.0393 58.1641 64.7829 58.1641 64.5156V53.196C58.1641 51.425 59.62 49.9023 61.3951 49.9023H98.6049C100.38 49.9023 101.836 51.425 101.836 53.196V98.6853C101.833 99.3926 101.598 100.079 101.167 100.64C100.735 101.2 100.131 101.603 99.4483 101.787L82.3143 106.392C80.7997 106.799 79.2047 106.799 77.6901 106.392L60.5524 101.787C59.8693 101.603 59.2655 101.2 58.8339 100.64C58.4024 100.079 58.167 99.3926 58.1641 98.6853V62.7054C58.1641 62.4382 58.0579 62.1818 57.8689 61.9928C57.6799 61.8038 57.4235 61.6976 57.1562 61.6976C56.889 61.6976 56.6326 61.8038 56.4436 61.9928C56.2546 62.1818 56.1484 62.4382 56.1484 62.7054V98.6853C56.1517 99.8359 56.5333 100.953 57.2345 101.866C57.9357 102.778 58.9175 103.434 60.0285 103.733Z" fill="#092A34"/>
<defs>
<radialGradient id="paint0_radial" cx="0" cy="0" r="1" gradientUnits="userSpaceOnUse" gradientTransform="translate(133.555 9.2383) rotate(124.43) scale(175.353 174.625)">
<stop stop-color="white"/>
<stop offset="0.46875" stop-color="white"/>
<stop offset="1" stop-color="white"/>
</radialGradient>
</defs>
</svg>
