<svg width="160" height="160" viewBox="0 0 160 160" fill="none" xmlns="http://www.w3.org/2000/svg">
<path d="M136.775 136.533C116.536 156.808 86.927 164.708 59.2191 157.225C31.7615 149.811 10.3373 128.413 2.97403 101.05L2.72339 100.119C-4.63987 72.7559 3.16945 43.5586 23.2252 23.4669C43.4638 3.19221 73.073 -4.70772 100.781 2.77456C128.238 10.1893 149.663 31.5869 157.026 58.9498L157.277 59.8812C164.64 87.2441 156.831 116.441 136.775 136.533Z" fill="#FEF8F1"/>
<path d="M52.1499 61.0637C51.9126 61.301 51.7792 61.6229 51.7792 61.9586C51.7792 62.2942 51.9126 62.6162 52.1499 62.8535L56.1687 66.8719L55.4258 67.6148C55.3082 67.7323 55.215 67.8718 55.1514 68.0254C55.0877 68.179 55.055 68.3436 55.055 68.5098C55.055 68.676 55.0877 68.8406 55.1514 68.9942C55.215 69.1477 55.3082 69.2873 55.4258 69.4048L58.7016 72.6804L60.4914 70.8906L58.1106 68.5098L64.5102 62.1102L66.8911 64.491L68.6809 62.7012L65.4052 59.4258C65.2877 59.3082 65.1482 59.215 64.9946 59.1514C64.841 59.0877 64.6764 59.055 64.5102 59.055C64.344 59.055 64.1794 59.0877 64.0258 59.1514C63.8723 59.215 63.7327 59.3082 63.6152 59.4258L62.8723 60.1687L58.8535 56.1499C58.6162 55.9126 58.2943 55.7792 57.9586 55.7792C57.6229 55.7792 57.301 55.9126 57.0637 56.1499L55.5028 57.7119L38.7075 40.9175C38.4701 40.6801 38.1482 40.5468 37.8125 40.5468C37.4768 40.5468 37.1548 40.6801 36.9175 40.9175C36.6801 41.1548 36.5468 41.4768 36.5468 41.8125C36.5468 42.1482 36.6801 42.4701 36.9175 42.7075L53.7119 59.5017L52.1499 61.0637ZM57.9587 58.8351L61.0825 61.9591L57.9587 65.0829L54.8351 61.9587L57.9587 58.8351Z" fill="#E92923"/>
<path d="M96.5797 85.6875L92.5945 81.7008L88.6092 77.7157L84.6242 73.7305L80.6396 69.7459L72.632 61.7383C72.3186 61.4249 71.9465 61.1762 71.537 61.0066C71.1275 60.837 70.6886 60.7497 70.2454 60.7497C69.8022 60.7497 69.3633 60.837 68.9538 61.0066C68.5443 61.1762 68.1723 61.4249 67.8589 61.7383L57.7364 71.8563C57.1044 72.4897 56.7494 73.348 56.7494 74.2429C56.7494 75.1377 57.1044 75.996 57.7364 76.6294L97.3391 116.231C97.9725 116.863 98.8308 117.218 99.7256 117.218C100.62 117.218 101.479 116.863 102.112 116.231L104.639 113.704L109.892 118.956L107.511 121.337C106.844 122.01 106.471 122.919 106.474 123.866C106.476 124.814 106.853 125.721 107.523 126.391C108.192 127.061 109.1 127.438 110.047 127.44C110.994 127.442 111.904 127.069 112.576 126.403L122.404 116.576C123.075 115.904 123.453 114.993 123.453 114.043C123.453 113.093 123.075 112.182 122.404 111.51C121.732 110.838 120.821 110.461 119.871 110.461C118.921 110.461 118.01 110.838 117.338 111.51L114.957 113.892L109.705 108.64L112.231 106.111C112.863 105.478 113.218 104.62 113.218 103.725C113.218 102.83 112.863 101.972 112.231 101.339L96.5797 85.6875ZM119.129 113.301C119.326 113.104 119.593 112.993 119.872 112.993C120.151 112.993 120.418 113.104 120.615 113.301C120.812 113.498 120.923 113.765 120.923 114.044C120.923 114.322 120.812 114.59 120.615 114.787L110.788 124.614C110.59 124.807 110.324 124.914 110.048 124.912C109.771 124.91 109.507 124.8 109.311 124.605C109.116 124.409 109.005 124.145 109.004 123.868C109.002 123.592 109.109 123.326 109.302 123.128L112.577 119.853L113.512 118.917L119.129 113.301ZM113.168 115.682L112.08 116.77L111.683 117.168L106.43 111.915L107.916 110.429L113.168 115.682ZM110.442 104.322L100.322 114.442C100.163 114.6 99.9488 114.688 99.7251 114.688C99.5014 114.688 99.2869 114.6 99.1285 114.442L59.5262 74.8394C59.368 74.6812 59.2792 74.4666 59.2792 74.2429C59.2792 74.0191 59.368 73.8046 59.5262 73.6463L69.6464 63.5262C69.8046 63.368 70.0192 63.2791 70.2429 63.2791C70.4666 63.2791 70.6812 63.368 70.8394 63.5262L77.9539 70.6394L73.9351 74.6582C73.6978 74.8955 73.5644 75.2175 73.5644 75.5531C73.5644 75.8888 73.6977 76.2107 73.935 76.4481C74.1724 76.6855 74.4943 76.8188 74.83 76.8189C75.1656 76.8189 75.4876 76.6856 75.7249 76.4482L79.7437 72.4294L81.9394 74.6251L80.3784 76.186C80.2609 76.3035 80.1677 76.4431 80.104 76.5966C80.0404 76.7502 80.0077 76.9147 80.0077 77.0809C80.0077 77.2472 80.0404 77.4117 80.104 77.5653C80.1676 77.7189 80.2608 77.8584 80.3783 77.9759C80.4958 78.0935 80.6354 78.1867 80.7889 78.2503C80.9425 78.3139 81.107 78.3467 81.2733 78.3467C81.4395 78.3467 81.6041 78.314 81.7576 78.2504C81.9112 78.1868 82.0507 78.0936 82.1682 77.976L83.7292 76.414L85.925 78.6097L81.9052 82.6289C81.7861 82.7461 81.6914 82.8857 81.6265 83.0396C81.5616 83.1936 81.5279 83.3589 81.5272 83.5259C81.5265 83.693 81.5589 83.8585 81.6225 84.013C81.6862 84.1675 81.7797 84.3079 81.8979 84.426C82.016 84.5441 82.1564 84.6377 82.3109 84.7013C82.4653 84.765 82.6309 84.7974 82.798 84.7967C82.965 84.796 83.1303 84.7623 83.2843 84.6974C83.4382 84.6325 83.5778 84.5378 83.695 84.4187L87.7138 80.3999L89.9094 82.5958L88.3485 84.1578C88.2284 84.2747 88.1327 84.4143 88.0669 84.5686C88.0012 84.7228 87.9668 84.8886 87.9657 85.0562C87.9645 85.2238 87.9967 85.39 88.0604 85.5451C88.124 85.7002 88.2178 85.8412 88.3364 85.9597C88.4549 86.0782 88.5958 86.172 88.751 86.2357C88.9061 86.2993 89.0723 86.3314 89.2399 86.3303C89.4076 86.3292 89.5733 86.2947 89.7275 86.229C89.8818 86.1632 90.0214 86.0675 90.1383 85.9474L91.6992 84.3864L93.8949 86.5821L89.8761 90.6011C89.756 90.718 89.6603 90.8576 89.5945 91.0119C89.5288 91.1661 89.4944 91.3318 89.4933 91.4995C89.4921 91.6671 89.5243 91.8333 89.588 91.9884C89.6516 92.1435 89.7454 92.2844 89.864 92.403C89.9825 92.5215 90.1235 92.6153 90.2786 92.679C90.4337 92.7426 90.5999 92.7747 90.7675 92.7736C90.9352 92.7725 91.1009 92.738 91.2551 92.6723C91.4094 92.6065 91.549 92.5108 91.6659 92.3907L95.6847 88.3719L97.8806 90.5677L96.3183 92.1287C96.1993 92.2459 96.1046 92.3855 96.0397 92.5394C95.9748 92.6934 95.9411 92.8587 95.9405 93.0258C95.9398 93.1928 95.9722 93.3584 96.0359 93.5128C96.0995 93.6673 96.1931 93.8077 96.3112 93.9258C96.4294 94.0439 96.5698 94.1375 96.7243 94.2011C96.8787 94.2647 97.0443 94.2971 97.2114 94.2964C97.3784 94.2957 97.5437 94.2619 97.6977 94.197C97.8516 94.1321 97.9912 94.0374 98.1084 93.9183L99.6693 92.3573L101.865 94.553L97.8474 98.5713C97.7299 98.6889 97.6367 98.8284 97.5731 98.9819C97.5094 99.1355 97.4767 99.3001 97.4767 99.4663C97.4767 99.6325 97.5094 99.7971 97.573 99.9506C97.6366 100.104 97.7298 100.244 97.8473 100.361C97.9649 100.479 98.1044 100.572 98.2579 100.636C98.4115 100.699 98.5761 100.732 98.7423 100.732C98.9085 100.732 99.0731 100.699 99.2266 100.636C99.3802 100.572 99.5197 100.479 99.6372 100.361L103.656 96.3428L110.442 103.128C110.52 103.207 110.582 103.3 110.625 103.402C110.667 103.505 110.689 103.614 110.689 103.725C110.689 103.836 110.667 103.946 110.625 104.048C110.582 104.15 110.52 104.243 110.442 104.322Z" fill="#092A34"/>
</svg>
