<svg width="160" height="160" viewBox="0 0 160 160" fill="none" xmlns="http://www.w3.org/2000/svg">
<path d="M136.775 136.533C116.536 156.808 86.927 164.708 59.2191 157.225C31.7615 149.811 10.3373 128.413 2.97403 101.05L2.72339 100.119C-4.63987 72.7559 3.16945 43.5586 23.2252 23.4669C43.4638 3.19221 73.073 -4.70772 100.781 2.77456C128.238 10.1893 149.663 31.5869 157.026 58.9498L157.277 59.8812C164.64 87.2441 156.831 116.441 136.775 136.533Z" fill="#FEF8F1"/>
<path d="M121.969 120.661H118.666V65.4786C118.671 65.3475 118.65 65.2167 118.603 65.0941C118.556 64.9714 118.484 64.8595 118.391 64.7652C118.299 64.6709 118.188 64.5961 118.066 64.5454C117.943 64.4947 117.812 64.4691 117.679 64.4703H107.737C107.602 64.4682 107.467 64.4928 107.342 64.5426C107.216 64.5923 107.102 64.6663 107.006 64.7602C106.91 64.8541 106.833 64.966 106.781 65.0893C106.73 65.2127 106.703 65.345 106.703 65.4786V120.661H100.289V77.5907C100.292 77.4618 100.269 77.3335 100.22 77.214C100.17 77.0945 100.097 76.9863 100.003 76.8964C99.9096 76.8064 99.7981 76.7366 99.6759 76.6914C99.5536 76.6462 99.4232 76.6265 99.2928 76.6336H89.3508C89.219 76.626 89.0869 76.6451 88.9628 76.6898C88.8387 76.7345 88.7252 76.8038 88.6292 76.8934C88.5333 76.9831 88.4569 77.0912 88.4047 77.2111C88.3526 77.331 88.3259 77.4602 88.3262 77.5907V120.661H81.9115V103.834C81.9148 103.703 81.8909 103.572 81.8414 103.45C81.792 103.329 81.718 103.218 81.6239 103.126C81.5298 103.033 81.4176 102.96 81.2942 102.912C81.1708 102.864 81.0387 102.841 80.906 102.845H70.9647C70.8315 102.841 70.6989 102.864 70.5749 102.912C70.4508 102.96 70.3379 103.032 70.243 103.125C70.1481 103.217 70.0731 103.328 70.0226 103.449C69.9721 103.571 69.9471 103.702 69.9491 103.834V120.661H63.5345V91.7216C63.5336 91.446 63.4225 91.1818 63.2252 90.9869C63.028 90.792 62.7607 90.6822 62.4818 90.6814H52.5786C52.4464 90.6813 52.3155 90.7071 52.1934 90.757C52.0712 90.807 51.9602 90.8803 51.8668 90.9726C51.7733 91.065 51.6992 91.1747 51.6486 91.2954C51.598 91.416 51.572 91.5454 51.572 91.676V97.7053C51.572 97.9779 51.6816 98.2393 51.8767 98.4321C52.0717 98.6248 52.3363 98.7331 52.6122 98.7331C52.8881 98.7331 53.1527 98.6248 53.3478 98.4321C53.5428 98.2393 53.6524 97.9779 53.6524 97.7053V92.7371H61.454V120.661H53.6524V96.1292C53.6524 95.8566 53.5428 95.5951 53.3478 95.4023C53.1527 95.2096 52.8881 95.1013 52.6122 95.1013C52.3363 95.1013 52.0717 95.2096 51.8767 95.4023C51.6816 95.5951 51.572 95.8566 51.572 96.1292V120.661H48.2884C48.0127 120.659 47.7472 120.764 47.5502 120.955C47.3532 121.145 47.2408 121.406 47.2378 121.678V125.972C47.2401 126.246 47.3519 126.507 47.5487 126.7C47.7455 126.893 48.0114 127 48.2884 127H121.969C122.105 127 122.24 126.973 122.366 126.921C122.491 126.869 122.605 126.794 122.701 126.698C122.797 126.602 122.873 126.489 122.924 126.365C122.975 126.24 123.001 126.107 123 125.972V121.678C123.001 121.544 122.975 121.411 122.923 121.288C122.872 121.164 122.796 121.051 122.7 120.957C122.604 120.862 122.49 120.787 122.364 120.737C122.239 120.686 122.105 120.66 121.969 120.661ZM108.784 66.526H116.585V120.661H108.784V66.526ZM90.4066 78.6894H98.2082V120.661H90.4066V78.6894ZM72.0295 104.9H79.8311V120.661H72.0295V104.9ZM120.92 124.944H49.3182V122.717H120.92V124.944Z" fill="#092A34"/>
<path d="M43.3824 71.2991C44.8176 74.6411 47.2172 77.4913 50.2818 79.4938C53.3463 81.4962 56.9399 82.5623 60.6139 82.5588C60.8898 82.5588 61.1544 82.4505 61.3494 82.2577C61.5445 82.0649 61.6541 81.8035 61.6541 81.5309C61.6541 81.2583 61.5445 80.9968 61.3494 80.804C61.1544 80.6113 60.8898 80.503 60.6139 80.503C57.348 80.5062 54.1534 79.5586 51.4292 77.7786C48.705 75.9985 46.5718 73.4649 45.2961 70.4941C45.2432 70.369 45.1658 70.2555 45.0683 70.1601C44.9708 70.0647 44.8552 69.9893 44.7282 69.9383C44.6011 69.8872 44.4651 69.8615 44.3279 69.8626C44.1907 69.8637 44.0551 69.8916 43.9289 69.9447C43.8026 69.9978 43.6883 70.075 43.5924 70.172C43.4965 70.2689 43.421 70.3836 43.3701 70.5095C43.3193 70.6354 43.2942 70.77 43.2962 70.9056C43.2982 71.0411 43.3273 71.1749 43.3819 71.2993L43.3824 71.2991Z" fill="#E92923"/>
<path d="M60.6139 87.6691C73.862 87.6691 84.597 76.8329 84.2186 63.6594C83.864 51.3203 73.7095 41.3193 61.2215 41.0077C57.4159 40.9111 53.6431 41.7259 50.2253 43.3827C46.8075 45.0394 43.8461 47.4888 41.5941 50.5218C41.5116 50.6304 41.4517 50.754 41.4179 50.8856C41.3841 51.0172 41.377 51.1541 41.397 51.2884C41.4171 51.4227 41.4639 51.5517 41.5347 51.668C41.6056 51.7844 41.699 51.8857 41.8097 51.966C41.9205 52.0464 42.0462 52.1044 42.1797 52.1364C42.3132 52.1685 42.4518 52.1741 42.5875 52.1529C42.7232 52.1317 42.8533 52.0841 42.9703 52.0129C43.0873 51.9418 43.1888 51.8483 43.269 51.7381C44.4714 50.1273 45.8959 48.6906 47.5011 47.4698L59.6617 65.3025C59.8552 65.5855 60.1782 65.8407 60.5237 65.8407H82.0934C81.8772 68.8404 81.0199 71.7607 79.5782 74.4091C78.1365 77.0575 76.1431 79.3738 73.7293 81.2054C71.3156 83.037 68.5363 84.3422 65.5749 85.035C62.6134 85.7278 59.537 85.7924 56.5484 85.2247C53.5598 84.6569 50.727 83.4696 48.2366 81.741C45.7463 80.0125 43.655 77.782 42.1006 75.1965C40.5463 72.6111 39.5642 69.7294 39.2191 66.7416C38.8741 63.7537 39.1738 60.7275 40.0986 57.8624C40.174 57.6339 40.1661 57.3864 40.0763 57.163C39.9865 56.9395 39.8205 56.7541 39.607 56.6389C39.4724 56.5669 39.3234 56.5251 39.1707 56.5165C39.0179 56.508 38.8651 56.5328 38.7232 56.5892C38.5812 56.6457 38.4536 56.7324 38.3495 56.8432C38.2453 56.954 38.1672 57.0861 38.1207 57.2301C37.3762 59.5265 36.9982 61.9234 37 64.3347C36.9997 77.2013 47.593 87.6691 60.6139 87.6691ZM82.1388 63.785H62.6413L76.5428 50.0481C79.9531 53.7378 81.9327 58.5006 82.1312 63.4937C82.135 63.591 82.1369 63.6878 82.1388 63.785ZM49.1771 46.3138C53.1515 43.8425 57.8364 42.7273 62.5136 43.1392C67.1909 43.5511 71.6024 45.4674 75.0718 48.5943L60.5223 62.9714L49.1771 46.3138Z" fill="#E92923"/>
</svg>
